<svg height="10" viewBox="0 0 14 10" width="14" xmlns="http://www.w3.org/2000/svg"><g fill="#2f2e2f" fill-rule="evenodd" transform="translate(.454545 .636364)"><path d="m.0316 4.36919526c-.08127273-2.22773123 1.78909091-4.2866087 3.92618182-4.31335969 1.08927273-.09694861 2.14872727.34415811 2.97363636 1.06453755-.33818182.38741502-.68290909.7712253-1.04981818 1.13037154-.726-.46007905-1.59963636-.81049802-2.44763636-.49935177-1.36854546.40657707-2.19618182 2.09207905-1.69072728 3.48863241.41945455 1.45802371 2.11981819 2.2584664 3.452 1.64566008.69036364-.25764427 1.14436364-.92205534 1.344-1.63560475-.79072727-.0163162-1.58163636-.00645059-2.37236363-.02940711-.00145455-.49081423-.004-.97935178-.00145455-1.47035573 1.31836364-.00208696 2.63927273-.00607115 3.95981818.00645059.08072728 1.20227668-.08927272 2.48992885-.83818181 3.45486166-1.02618182 1.3781502-2.92218182 1.78245059-4.464 1.24211858-1.63727273-.56101186-2.8269091-2.28142293-2.79145455-4.08455336"/><path d="m10.6951273 2.51271462h1.1763636c.0018182.41056127.0056364.82283004.0076364 1.23358103.3936363.00398419.7890909.00550198 1.1827272.00834783v1.22921739c-.3936363.00189723-.7890909.00417391-1.1827272.00607115-.0034546.41226877-.0058182.82320948-.0076364 1.23566798-.3934545-.00170751-.7870909 0-1.1787273 0-.0038181-.4124585-.0038181-.82339921-.0074545-1.23358103-.3934546-.00398419-.78909092-.00626087-1.18200001-.0081581v-1.22921739c.39290909-.00284585.78636361-.00436364 1.18200001-.00834783.002-.41075099.006-.82301976.0098182-1.23358103"/></g></svg>