<svg height="14" viewBox="0 0 14 14" width="14" xmlns="http://www.w3.org/2000/svg"><g fill="#2f2e2f" fill-rule="evenodd" transform="translate(.0625 .0625)"><path d="m1.78381875.1856625c.8908125 0 1.6141875.723375 1.6141875 1.6149375s-.723375 1.615125-1.6141875 1.615125c-.8945625 0-1.6156875-.7235625-1.6156875-1.615125s.721125-1.6149375 1.6156875-1.6149375zm-1.394625 13.4154375h2.7879375v-8.961h-2.7879375z"/><path d="m4.9241625 4.64008125h2.669625v1.225125h.03825c.37125-.704625 1.2800625-1.4476875 2.6349375-1.4476875 2.82 0 3.3410625 1.8556875 3.3410625 4.269v4.91456255h-2.78475v-4.35768755c0-1.039125-.0178125-2.376-1.447125-2.376-1.4491875 0-1.6704375 1.1325-1.6704375 2.3015625v4.43212505h-2.7815625z"/></g></svg>