<?xml version="1.0" encoding="UTF-8"?>
<svg width="360px" height="112px" viewBox="0 0 360 112" version="1.1" xmlns="http://www.w3.org/2000/svg" xmlns:xlink="http://www.w3.org/1999/xlink">
    <!-- Generator: Sketch 53.2 (72643) - https://sketchapp.com -->
    <title>Group 77</title>
    <desc>Created with Sketch.</desc>
    <defs>
        <polygon id="path-1" points="0.108312195 0.0847921951 18.9010927 0.0847921951 18.9010927 21.8536585 0.108312195 21.8536585"></polygon>
        <polygon id="path-3" points="0.368926829 0.227721569 13.4912195 0.227721569 13.4912195 20.3833898 0.368926829 20.3833898"></polygon>
        <polygon id="path-5" points="0 112 359.219512 112 359.219512 0 0 0"></polygon>
    </defs>
    <g id="Page-1" stroke="none" stroke-width="1" fill="none" fill-rule="evenodd">
        <g id="14" transform="translate(-387.000000, -324.000000)">
            <g id="Group-77" transform="translate(387.000000, 324.000000)">
                <path d="M18.1991118,53.7742716 L24.7507351,50.1931737 L18.1991118,53.7742716 Z M18.1991118,53.7742716 C17.6894778,52.8972389 16.9623112,52.3125503 16.0874316,51.8017825 C14.9233002,51.2900608 13.830888,51.0702065 12.7399007,51.216617 C11.7933018,51.3620738 10.9920413,51.8017825 10.3370689,52.4589609 C9.68162161,53.1170932 9.31780086,53.9206822 9.2451317,54.8711587 C9.17198758,55.529291 9.2451317,56.1869464 9.53675826,56.6981911 C9.75476573,57.2103897 10.1912556,57.7950782 10.8471779,58.3802437 C11.3568119,58.7455548 11.9381652,59.0374221 12.4477992,59.2572765 C13.2495348,59.5491438 13.9040321,59.7689981 14.7043428,59.9878986 C15.7240858,60.279766 16.7433539,60.4996203 17.7626219,60.9378983 C18.9267533,61.3766531 20.0918346,62.0347854 21.1842468,62.984785 C22.8584872,64.3005726 24.0957627,65.8357377 24.8970233,67.663247 C25.7704781,69.636213 26.0611547,71.4641992 25.9153414,73.4366884 C25.6246648,76.2876411 24.5322526,78.7732826 22.5673356,80.8926593 C20.746332,82.8665792 18.2722559,84.1818899 15.2871209,84.5481548 C12.6667566,84.9134659 9.82790985,84.5481548 7.27926476,83.3048571 C4.94957706,82.2089238 2.7661776,80.3809376 1.45623292,77.823283 C1.01926805,77.0192171 0.800310656,76.4345286 0.509634026,75.6304626 C0.29067663,74.9723304 0.145813277,74.1687413 0,73.2182648 L7.35240887,72.1948214 C7.42507803,72.7065431 7.57136627,73.0718542 7.64403543,73.2917085 C7.71575466,73.5101321 7.78889878,73.8754432 8.00785618,74.2417082 C8.66235356,75.3376415 9.46361414,76.1421843 10.4833572,76.5804622 C11.7201577,77.1646738 13.1032465,77.3845282 14.340522,77.1646738 C15.5060783,76.9462502 16.3795331,76.5074954 17.1798438,75.7024756 C17.9084352,74.9723304 18.3454001,74.0218538 18.4902634,72.8529537 C18.4902634,72.0479339 18.4171193,71.3907555 18.1264427,70.7331001 C17.8352911,70.074491 17.3988012,69.3438688 16.5253464,68.8321471 C16.0874316,68.3204254 15.5060783,68.1015249 14.9964443,67.8821475 C14.1956587,67.5898032 13.5402114,67.3699489 12.7399007,67.1515253 C11.6474886,66.9316709 10.6282205,66.5663598 9.68162161,66.2010488 C8.44434608,65.7627708 7.35240887,65.0311948 6.18780251,64.154162 C4.58575631,62.8383744 3.56648826,61.4496199 2.7661776,59.7689981 C1.96586695,57.940535 1.6020462,56.1135026 1.74690955,54.2859933 C1.96586695,51.7283387 3.12999835,49.2426972 4.94957706,47.2687773 C6.6979115,45.5151886 8.95398011,44.199401 11.7933018,43.8340899 C14.340522,43.467825 16.9623112,43.9065798 19.291524,45.00299 C21.5480676,46.0998771 23.3676463,47.7809759 24.7507351,50.1931737 L18.1991118,53.7742716 Z" id="Fill-1" fill="#3DCD58"></path>
                <path d="M34.7426824,43.7073171 L27.3928429,43.7073171 L34.7426824,43.7073171 Z M34.7426824,43.7073171 L34.7426824,58.6793902 L34.7426824,65.4126867 L34.7426824,67.1331687 C34.7426824,69.4252752 34.6707496,71.7173817 35.463891,73.36495 C36.0393534,74.5825147 36.9039574,75.585545 38.0577031,76.3025294 C39.1390459,77.018579 40.3637841,77.3766038 41.660455,77.3766038 C42.8137306,77.3766038 43.966536,77.0900904 45.0474085,76.4446176 C46.127811,75.8725257 46.9933553,75.012051 47.6412207,73.9379766 C48.7225634,72.2188968 48.5782276,69.8552788 48.5782276,67.4907261 L48.5782276,66.703165 L48.5782276,58.6074113 L48.5782276,43.7073171 L56,43.7073171 L56,58.6074113 L56,66.703165 L56,67.4907261 C56,70.8578417 56,74.22449 53.9821204,77.6635845 C52.6130465,79.8841794 50.8838384,81.6032593 48.7225634,82.8203566 C46.6322809,84.0393235 44.2542672,84.6829268 41.660455,84.6829268 C38.8499042,84.6829268 36.3284951,83.9673446 34.0224141,82.4623318 C31.6444004,80.9591886 29.986655,79.0246395 28.7619168,76.5170638 C27.1770445,73.2929712 27.3204399,70.1413248 27.3204399,67.0611898 C27.3928429,66.4876958 27.3928429,65.9142018 27.3928429,65.4126867 L27.3928429,58.6793902 L27.3928429,43.7073171 L34.7426824,43.7073171 Z" id="Fill-3" fill="#3DCD58"></path>
                <path d="M76.9308412,53.7742716 L83.4824725,50.1931737 L76.9308412,53.7742716 Z M76.9308412,53.7742716 C76.4212066,52.8972389 75.6935642,52.3125503 74.8191584,51.8017825 C73.6550256,51.2900608 72.5626121,51.0702065 71.4711486,51.216617 C70.5250235,51.3620738 69.723287,51.8017825 69.0687888,52.4589609 C68.4133407,53.1170932 68.0495195,53.9206822 67.9763753,54.8711587 C67.903706,55.529291 67.9763753,56.1869464 68.2684772,56.6981911 C68.4860099,57.2103897 68.9229753,57.7950782 69.5788984,58.3802437 C70.0880581,58.7455548 70.669887,59.0374221 71.1795216,59.2572765 C71.9812582,59.5491438 72.6357563,59.7689981 73.436068,59.9878986 C74.4553373,60.279766 75.4750815,60.4996203 76.4943508,60.9378983 C77.6584836,61.3766531 78.8235664,62.0347854 79.9159799,62.984785 C81.5897473,64.3005726 82.8270244,65.8357377 83.6287609,67.663247 C84.5017417,69.636213 84.7928937,71.4641992 84.6470802,73.4366884 C84.3559283,76.2876411 83.2635148,78.7732826 81.2990703,80.8926593 C79.4780645,82.8665792 77.0039854,84.1818899 74.0188468,84.5481548 C71.3984793,84.9134659 68.5591541,84.5481548 66.0109809,83.3048571 C63.6812904,82.2089238 61.4978883,80.3809376 60.187942,77.823283 C59.7509766,77.0192171 59.5320189,76.4345286 59.240867,75.6304626 C59.0223843,74.9723304 58.8775208,74.1687413 58.7317073,73.2182648 L66.0836502,72.1948214 C66.1567944,72.7065431 66.3026078,73.0718542 66.375752,73.2917085 C66.4474714,73.5101321 66.5206156,73.8754432 66.7390983,74.2417082 C67.3935964,75.3376415 68.1953329,76.1421843 69.2136523,76.5804622 C70.4518793,77.1646738 71.8349697,77.3845282 73.0722468,77.1646738 C74.2378045,76.9462502 75.1107854,76.5074954 75.9115719,75.7024756 C76.6401643,74.9723304 77.0766547,74.0218538 77.2215182,72.8529537 C77.2215182,72.0479339 77.148374,71.3907555 76.857697,70.7331001 C76.56702,70.074491 76.1300546,69.3438688 75.2570738,68.8321471 C74.8191584,68.3204254 74.2378045,68.1015249 73.7276949,67.8821475 C72.9273832,67.5898032 72.2719351,67.3699489 71.4711486,67.1515253 C70.37921,66.9316709 69.3599407,66.5663598 68.4133407,66.2010488 C67.1760637,65.7627708 66.0836502,65.0311948 64.9195173,64.154162 C63.3174692,62.8383744 62.2981999,61.4496199 61.4978883,59.7689981 C60.6971017,57.940535 60.3337555,56.1135026 60.478144,54.2859933 C60.6971017,51.7283387 61.8612345,49.2426972 63.6812904,47.2687773 C65.429152,45.5151886 67.6856983,44.199401 70.5250235,43.8340899 C73.0722468,43.467825 75.6935642,43.9065798 78.0232547,45.00299 C80.2798011,46.0998771 82.099382,47.7809759 83.4824725,50.1931737 L76.9308412,53.7742716 Z" id="Fill-5" fill="#3DCD58"></path>
                <path d="M84.6829268,43.7073171 L84.6829268,51.1307066 L84.6829268,43.7073171 Z M84.6829268,43.7073171 L107.902439,43.7073171 L107.902439,51.1307066 L99.8712005,51.1307066 L99.8712005,84.6829268 L92.4226054,84.6829268 L92.4226054,51.1307066 L84.6829268,51.1307066 L84.6829268,43.7073171 Z" id="Fill-7" fill="#3DCD58"></path>
                <path d="M121.989966,60.5327831 L118.283117,68.4380409 L121.989966,60.5327831 Z M118.283117,68.4380409 L125.841448,68.4380409 L121.989966,60.5327831 L118.283117,68.4380409 Z M129.330165,75.3997969 L114.939507,75.3997969 L110.57873,84.6829268 L102.439024,84.6829268 L118.500776,50.7424145 L121.844386,43.7073171 L125.260549,50.6695462 L142.04878,84.6829268 L133.909075,84.6829268 L129.330165,75.3997969 Z" id="Fill-9" fill="#3DCD58"></path>
                <path d="M143.414634,43.7073171 L150.243902,43.7073171 L143.414634,43.7073171 Z M143.414634,84.6829268 L150.243902,84.6829268 L150.243902,43.7073171 L143.414634,43.7073171 L143.414634,84.6829268 Z" id="Fill-11" fill="#3DCD58"></path>
                <path d="M177.112208,43.7073171 L184.390244,43.7073171 L177.112208,43.7073171 Z M184.390244,43.7073171 L184.390244,75.5371864 L184.390244,84.6829268 L178.040002,77.8784043 L162.984887,62.0002302 L162.984887,84.6098831 L155.707317,84.6098831 L155.707317,52.8535349 L155.707317,43.7073171 L162.057093,50.5118396 L177.112208,66.3900137 L177.112208,43.7073171 L184.390244,43.7073171 Z" id="Fill-13" fill="#3DCD58"></path>
                <path d="M205.30704,60.5327831 L201.600664,68.4380409 L205.30704,60.5327831 Z M201.600664,68.4380409 L209.158047,68.4380409 L205.30704,60.5327831 L201.600664,68.4380409 Z M212.647238,75.3997969 L198.257054,75.3997969 L193.895803,84.6829268 L185.756098,84.6829268 L201.817849,50.7424145 L205.160985,43.7073171 L208.577148,50.6695462 L225.365854,84.6829268 L217.226148,84.6829268 L212.647238,75.3997969 Z" id="Fill-15" fill="#3DCD58"></path>
                <path d="M234.194824,67.2880822 L234.194824,77.1864098 L238.80455,77.1864098 C240.194724,77.1864098 241.439293,76.6037642 242.317222,75.730508 C243.195152,74.7845992 243.780915,73.6207326 243.780915,72.2379583 C243.780915,70.8537594 243.195152,69.6167653 242.317222,68.7435091 C241.439293,67.7976003 240.268243,67.2880822 238.80455,67.2880822 L234.194824,67.2880822 Z M234.194824,51.2038341 L234.194824,59.7184377 L238.512384,59.7184377 C239.755521,59.7184377 240.780488,59.282047 241.51138,58.4819184 C242.317222,57.7544424 242.756426,56.7354061 242.756426,55.4969874 C242.756426,54.2604681 242.317222,53.2409569 241.51138,52.4408283 C240.706969,51.6406996 239.682479,51.2038341 238.512384,51.2038341 L234.194824,51.2038341 Z M234.194824,43.7073171 L226.731707,43.7073171 L234.194824,43.7073171 Z M234.194824,43.7073171 L234.194824,43.7804446 L238.512384,43.7804446 C241.731459,43.7804446 244.585326,45.0174387 246.85343,47.2003417 C248.974973,49.3115417 250.293061,52.2219207 250.293061,55.4969874 C250.293061,58.4087909 249.195052,61.101212 247.365675,63.212412 L247.65784,63.4303699 C249.925944,65.68735 251.317073,68.8166366 251.317073,72.2379583 C251.317073,75.6578554 249.925944,78.7149642 247.65784,80.9709946 C245.389737,83.2270251 242.243704,84.6102742 238.80455,84.6102742 L234.194824,84.6102742 L234.194824,84.6829268 L226.731707,84.6829268 L226.731707,43.7073171 L234.194824,43.7073171 Z" id="Fill-17" fill="#3DCD58"></path>
                <path d="M254.04878,43.7073171 L260.878049,43.7073171 L254.04878,43.7073171 Z M254.04878,84.6829268 L260.878049,84.6829268 L260.878049,43.7073171 L254.04878,43.7073171 L254.04878,84.6829268 Z" id="Fill-19" fill="#3DCD58"></path>
                <path d="M273.547319,43.7073171 L266.341463,43.7073171 L273.547319,43.7073171 Z M273.547319,43.7073171 L273.547319,77.1132823 L286.829268,77.1132823 L286.829268,84.6097993 L273.547319,84.6097993 L273.547319,84.6829268 L266.341463,84.6829268 L266.341463,43.7073171 L273.547319,43.7073171 Z" id="Fill-21" fill="#3DCD58"></path>
                <path d="M290.926829,43.7073171 L297.756098,43.7073171 L290.926829,43.7073171 Z M290.926829,84.6829268 L297.756098,84.6829268 L297.756098,43.7073171 L290.926829,43.7073171 L290.926829,84.6829268 Z" id="Fill-23" fill="#3DCD58"></path>
                <path d="M301.853659,43.7073171 L301.853659,51.1307066 L301.853659,43.7073171 Z M301.853659,43.7073171 L325.073171,43.7073171 L325.073171,51.1307066 L317.041291,51.1307066 L317.041291,84.6829268 L309.59302,84.6829268 L309.59302,51.1307066 L301.853659,51.1307066 L301.853659,43.7073171 Z" id="Fill-25" fill="#3DCD58"></path>
                <path d="M347.357181,69.481826 L359.219512,43.7073171 L347.357181,69.481826 Z M347.357181,69.481826 L347.357181,84.6829268 L339.954246,84.6829268 L339.954246,69.8488218 L327.804878,43.7073171 L335.927751,43.7073171 L343.548309,60.0827087 L351.095701,43.7073171 L359.219512,43.7073171 L347.357181,69.481826 Z" id="Fill-27" fill="#3DCD58"></path>
                <path d="M9.9861767,21.4239278 L13.0897679,19.633031 L9.9861767,21.4239278 Z M9.9861767,21.4239278 C9.74472518,20.98543 9.399729,20.6930982 8.98646663,20.4371864 C8.43483926,20.1812746 7.9171159,20.0715288 7.40030887,20.1448545 C6.95176801,20.2181803 6.57286781,20.4371864 6.2622338,20.7659383 C5.95114162,21.0951758 5.77933077,21.4967679 5.74542676,21.9721714 C5.71014827,22.3009233 5.74542676,22.6301609 5.88287544,22.8860726 C5.98687827,23.1419844 6.19350946,23.4343163 6.50322715,23.7261625 C6.74467866,23.9092341 7.02095051,24.0554 7.26240202,24.1656315 C7.64130222,24.3113118 7.9523944,24.4210577 8.33129459,24.5308035 C8.81373946,24.6769694 9.29664249,24.7867153 9.77908735,25.0057214 C10.3307147,25.225213 10.8828003,25.553965 11.3996073,26.0288828 C12.1931443,26.6868723 12.7791339,27.454122 13.1594086,28.3680232 C13.5726709,29.3552502 13.7101196,30.2686659 13.6418534,31.2554073 C13.5030303,32.6806465 12.9862232,33.9232996 12.0552375,34.9828812 C11.1934343,35.9701082 10.0214552,36.6280976 8.60665011,36.8106837 C7.3659467,36.9932697 6.02078228,36.8106837 4.81398287,36.1895999 C3.71026997,35.6408706 2.67573958,34.727455 2.05538787,33.4478962 C1.84829852,33.0463041 1.74475385,32.7539722 1.60684701,32.3518945 C1.50330234,32.022657 1.43503616,31.6210649 1.36585366,31.146147 L4.84834504,30.6343235 C4.88270721,30.8902353 4.95188972,31.0728213 4.98625189,31.1825671 C5.02061406,31.2918274 5.05543439,31.4744134 5.15897906,31.657485 C5.46869675,32.2057286 5.84897143,32.6078063 6.3314163,32.8268124 C6.91740584,33.1191442 7.57211972,33.2293757 8.15810925,33.1191442 C8.71019478,33.0093984 9.12437347,32.7903923 9.50327367,32.3883146 C9.84826985,32.022657 10.0553592,31.5482247 10.1236254,30.9630754 C10.1236254,30.5609977 10.0897214,30.2322458 9.95181453,29.9030083 C9.81436585,29.5747419 9.60681834,29.2090843 9.19309781,28.9526869 C8.98646663,28.6967752 8.71019478,28.5870293 8.46874327,28.4777691 C8.08984308,28.3316032 7.77920906,28.2223429 7.40030887,28.1121115 C6.88350183,28.0028512 6.39968248,27.8197796 5.95114162,27.6371936 C5.36515208,27.4177019 4.84834504,27.0525299 4.29671767,26.6135465 C3.53845912,25.9560427 3.05601426,25.2611475 2.67573958,24.4210577 C2.29683938,23.507642 2.12457037,22.5937408 2.19329471,21.6798395 C2.29683938,20.4007663 2.84846675,19.1576275 3.71026997,18.1713717 C4.53771103,17.2943762 5.60751992,16.6363867 6.95176801,16.4533151 C8.15810925,16.2707291 9.399729,16.4902208 10.5039001,17.0384644 C11.5727926,17.586708 12.4341377,18.4267979 13.0897679,19.633031 L9.9861767,21.4239278 Z" id="Fill-29" fill="#3DCD58"></path>
                <path d="M29.8440086,30.3935511 L32.7804878,32.3595225 L29.8440086,30.3935511 Z M32.7804878,32.3595225 C31.8018162,33.7732804 30.5430597,34.9120774 28.9703108,35.70534 C27.4667703,36.4981443 25.823884,36.8780488 24.0411876,36.8780488 C21.1404738,36.8780488 18.6224963,35.7740802 16.6999896,33.8773074 C14.7770184,31.9800762 13.6585366,29.4971781 13.6585366,26.6339172 C13.6585366,23.7715728 14.7770184,21.2877582 16.6999896,19.3914436 C18.6224963,17.4942125 21.1404738,16.3902439 24.0411876,16.3902439 C25.7546757,16.3902439 27.3617965,16.8040603 28.7603632,17.4942125 C30.2295318,18.2526466 31.4525229,19.2878749 32.4664954,20.6328927 L29.5643882,22.7024327 C28.9359389,21.8399716 28.1314495,21.1846478 27.1532424,20.6672628 C26.1736419,20.1498778 25.1243684,19.9088286 24.0411876,19.9088286 C22.1878892,19.9088286 20.5101666,20.6672628 19.25141,21.9087118 C17.9935825,23.1501609 17.224394,24.8063429 17.224394,26.6339172 C17.224394,28.5311483 17.9935825,30.1520436 19.25141,31.393951 C20.4757946,32.6010299 22.1186809,33.3599224 24.0411876,33.3599224 C25.2655721,33.3599224 26.348753,33.0835865 27.3274246,32.5666598 C28.3413971,32.0492748 29.1802584,31.3247524 29.8440086,30.3935511 L32.7804878,32.3595225 Z" id="Fill-31" fill="#3DCD58"></path>
                <path d="M35.5121951,16.3902439 L39.2244097,16.3902439 L35.5121951,16.3902439 Z M39.2244097,16.3902439 L39.2244097,24.86909 L45.4953855,24.86909 L45.4953855,16.3902439 L49.1707317,16.3902439 L49.1707317,36.8780488 L45.4953855,36.8780488 L45.4953855,28.5810027 L39.2244097,28.5810027 L39.2244097,36.8780488 L35.5121951,36.8780488 L35.5121951,16.3902439 L39.2244097,16.3902439 Z" id="Fill-33" fill="#3DCD58"></path>
                <path d="M60.729476,16.3902439 L64.195122,16.3902439 L60.729476,16.3902439 Z M64.195122,16.3902439 L64.195122,32.3048954 L64.195122,36.8780488 L61.1714282,33.4754049 L54.0022314,25.5365506 L54.0022314,36.8411058 L50.5365854,36.8411058 L50.5365854,20.9638834 L50.5365854,16.3902439 L53.5602791,19.7928878 L60.729476,27.731742 L60.729476,16.3902439 L64.195122,16.3902439 Z" id="Fill-35" fill="#3DCD58"></path>
                <path d="M70.5687894,20.0955982 L70.5687894,24.8907909 L70.5687894,20.0955982 Z M70.5687894,24.8907909 L75.996145,24.8907909 L75.996145,28.5961452 L70.5687894,28.5961452 L70.5687894,33.1369779 L77.8536585,33.1369779 L77.8536585,36.8780488 L66.9268293,36.8780488 L66.9268293,16.3902439 L77.8536585,16.3902439 L77.8536585,20.0955982 L70.5687894,20.0955982 L70.5687894,24.8907909 Z" id="Fill-37" fill="#3DCD58"></path>
                <path d="M79.2195122,16.3902439 L83.3170732,16.3902439 L79.2195122,16.3902439 Z M79.2195122,36.8780488 L83.3170732,36.8780488 L83.3170732,16.3902439 L79.2195122,16.3902439 L79.2195122,36.8780488 Z" id="Fill-39" fill="#3DCD58"></path>
                <path d="M89.7800668,20.1384199 L89.7800668,33.1656525 L92.1590292,33.1656525 C93.9512716,33.1656525 95.5967125,32.4017054 96.768208,31.2374113 C97.9382453,30.0731172 98.7077381,28.435466 98.7077381,26.652278 C98.7077381,24.86909 97.9382453,23.2314388 96.768208,22.0671447 C95.5967125,20.8661038 93.9512716,20.1384199 92.1590292,20.1384199 L89.7800668,20.1384199 Z M86.0487805,16.3902439 L89.7800668,16.3902439 L86.0487805,16.3902439 Z M89.7800668,16.3902439 L89.7800668,16.4265072 L92.1590292,16.4265072 C94.9754796,16.4265072 97.573672,17.5550215 99.4393152,19.4107361 C101.304958,21.2664507 102.439024,23.7773225 102.439024,26.652278 C102.439024,29.4547068 101.304958,32.0381053 99.4393152,33.8938199 C97.573672,35.750018 94.9754796,36.8780488 92.1590292,36.8780488 L88.6460008,36.8780488 L86.0487805,36.8780488 L86.0487805,16.3902439 L89.7800668,16.3902439 Z" id="Fill-41" fill="#3DCD58"></path>
                <path d="M106.080985,20.0955982 L106.080985,24.8907909 L106.080985,20.0955982 Z M106.080985,24.8907909 L111.508815,24.8907909 L111.508815,28.5961452 L106.080985,28.5961452 L106.080985,33.1369779 L113.365854,33.1369779 L113.365854,36.8780488 L102.439024,36.8780488 L102.439024,16.3902439 L113.365854,16.3902439 L113.365854,20.0955982 L106.080985,20.0955982 L106.080985,24.8907909 Z" id="Fill-43" fill="#3DCD58"></path>
                <path d="M119.679485,26.1791519 L121.366387,26.1791519 C122.173207,26.1791519 122.875499,25.8880715 123.437799,25.3059107 C124.0001,24.7237499 124.28055,23.9960489 124.28055,23.1585884 C124.28055,22.3583591 124.0001,21.6301746 123.437799,21.0117496 C122.875499,20.4295888 122.173207,20.1385084 121.366387,20.1385084 L119.679485,20.1385084 L119.679485,26.1791519 Z M128.390244,36.8780488 L124.210554,36.8780488 L120.206788,29.9278999 L119.679485,29.9278999 L119.679485,36.8780488 L116.097561,36.8780488 L116.097561,16.3902439 L119.679485,16.3902439 L119.679485,16.4265081 L121.366387,16.4265081 C123.157349,16.4265081 124.771922,17.1179449 125.966052,18.3915425 C127.161116,19.7018878 127.898406,21.3033135 127.898406,23.1585884 C127.898406,25.0143468 127.195647,26.7250485 125.966052,27.9261178 C125.368753,28.5450263 124.73739,28.9811634 124.034631,29.309475 L128.390244,36.8780488 Z" id="Fill-45" fill="#3DCD58"></path>
                <path d="M254.04878,91.5121951 L258.146341,91.5121951 L254.04878,91.5121951 Z M254.04878,112 L258.146341,112 L258.146341,91.5121951 L254.04878,91.5121951 L254.04878,112 Z" id="Fill-47" fill="#3DCD58"></path>
                <path d="M259.512195,112 L263.274245,112 L259.512195,112 Z M259.512195,112 L265.050948,95.7182594 L266.479142,91.5121951 L268.325085,95.5010606 L272.470264,104.457628 L276.650525,95.5010606 L278.496468,91.5121951 L279.925123,95.7182594 L285.463415,112 L281.701365,112 L277.973935,101.12132 L272.470264,112 L266.966593,101.12132 L263.274245,112 L259.512195,112 Z" id="Fill-49" fill="#3DCD58"></path>
                <path d="M290.56095,95.2601349 L290.56095,101.301108 L292.316978,101.301108 C293.158146,101.301108 293.890228,101.010319 294.475409,100.427778 C295.06059,99.8457189 295.353908,99.1175422 295.353908,98.2808624 C295.353908,97.4803503 295.06059,96.7521737 294.475409,96.1339468 C293.890228,95.5514055 293.158146,95.2601349 292.316978,95.2601349 L290.56095,95.2601349 Z M286.829268,91.5121951 L290.56095,91.5121951 L286.829268,91.5121951 Z M290.56095,91.5121951 L290.56095,91.5483628 L292.316978,91.5483628 C294.183061,91.5483628 295.865881,92.2398895 297.109936,93.5134753 C298.353507,94.8237111 299.121951,96.4247353 299.121951,98.2808624 C299.121951,100.136507 298.390354,101.774181 297.109936,103.047767 C295.829035,104.321835 294.183061,105.04953 292.316978,105.04953 L290.56095,105.04953 L290.56095,112 L286.829268,112 L286.829268,91.5121951 L290.56095,91.5121951 Z" id="Fill-51" fill="#3DCD58"></path>
                <path d="M305.828705,99.9248042 L304.038652,103.87763 L305.828705,99.9248042 Z M304.038652,103.87763 L307.688036,103.87763 L305.828705,99.9248042 L304.038652,103.87763 Z M309.372081,107.358577 L302.42528,107.358577 L300.319527,112 L296.390244,112 L304.144196,95.0291818 L305.758498,91.5121951 L307.407672,94.9931422 L315.512195,112 L311.582447,112 L309.372081,107.358577 Z" id="Fill-53" fill="#3DCD58"></path>
                <g id="Group-57" transform="translate(314.146341, 90.146341)">
                    <mask id="mask-2" fill="white">
                        <use xlink:href="#path-1"></use>
                    </mask>
                    <g id="Clip-56"></g>
                    <path d="M16.0154992,14.9637342 L18.9010927,17.052944 L16.0154992,14.9637342 Z M18.9010927,17.052944 C17.9395317,18.5555044 16.7025236,19.7647402 15.1563772,20.6078057 C13.6789789,21.4503857 12.0640846,21.8539499 10.3121496,21.8539499 C7.46024715,21.8539499 4.98668618,20.6806513 3.09725528,18.6652583 C1.20782439,16.6498654 0.108312195,14.0109147 0.108312195,10.9693711 C0.108312195,7.92782743 1.20782439,5.28887675 3.09725528,3.27348379 C4.98668618,1.2576052 7.46024715,0.0847921951 10.3121496,0.0847921951 C11.9957919,0.0847921951 13.5760846,0.524779187 14.9501333,1.2576052 C16.3933854,2.06424802 17.5957919,3.16324423 18.5919545,4.59295913 L15.7405073,6.79143718 C15.1217756,5.87504043 14.3318569,5.17912282 13.3693854,4.6293819 C12.4078244,4.07964098 11.3770602,3.82322472 10.3121496,3.82322472 C8.49101138,3.82322472 6.84197073,4.6293819 5.60541789,5.94885724 C4.36840976,7.26784694 3.61218211,9.02682363 3.61218211,10.9693711 C3.61218211,12.984764 4.36840976,14.7073179 5.60541789,16.0263076 C6.80736911,17.3093602 8.42226341,18.1155174 10.3121496,18.1155174 C11.5145561,18.1155174 12.5794667,17.8226784 13.5414829,17.2729375 C14.5376455,16.7227109 15.3621659,15.9534621 16.0154992,14.9637342 L18.9010927,17.052944 Z" id="Fill-55" fill="#3DCD58" mask="url(#mask-2)"></path>
                </g>
                <path d="M334.634146,91.5121951 L334.634146,95.2239671 L334.634146,91.5121951 Z M334.634146,91.5121951 L345.560976,91.5121951 L345.560976,95.2239671 L341.781186,95.2239671 L341.781186,112 L338.276423,112 L338.276423,95.2239671 L334.634146,95.2239671 L334.634146,91.5121951 Z" id="Fill-58" fill="#3DCD58"></path>
                <g id="Group-62" transform="translate(345.560976, 91.512195)">
                    <mask id="mask-4" fill="white">
                        <use xlink:href="#path-3"></use>
                    </mask>
                    <g id="Clip-61"></g>
                    <path d="M9.57136585,5.17969824 L12.8845366,3.41822348 L9.57136585,5.17969824 Z M9.57136585,5.17969824 C9.31380488,4.74850142 8.9455122,4.46071923 8.50404878,4.20914804 C7.91478049,3.95757686 7.36307317,3.84989677 6.81087805,3.92136585 C6.33185366,3.9933114 5.92697561,4.20914804 5.5962439,4.53314124 C5.26453659,4.85618151 5.08063415,5.25164379 5.04404878,5.71952808 C5.00697561,6.04304481 5.04404878,6.36656154 5.19136585,6.61860919 C5.30160976,6.86970391 5.52209756,7.1574861 5.85380488,7.44526829 C6.11136585,7.62489393 6.4055122,7.76878503 6.66307317,7.87646512 C7.06843902,8.02035621 7.39965854,8.1280363 7.80453659,8.23619285 C8.32014634,8.38008395 8.83526829,8.48776404 9.35039024,8.70360068 C9.93965854,8.91943732 10.5289268,9.24295406 11.0806341,9.71036188 C11.9274634,10.3573953 12.5533171,11.1125854 12.9581951,12.0116665 C13.3996585,12.9822167 13.5469756,13.8812978 13.4733171,14.851848 C13.326,16.2540715 12.7738049,17.4766693 11.7801463,18.5191651 C10.8601463,19.4901917 9.60795122,20.1372252 8.09868293,20.3173273 C6.77380488,20.4964765 5.33819512,20.3173273 4.04990244,19.7055519 C2.87185366,19.1661985 1.76746341,18.2675939 1.10502439,17.0092615 C0.88404878,16.6137992 0.773804878,16.3264935 0.626487805,15.9300783 C0.516243902,15.607038 0.442097561,15.2115757 0.368926829,14.7436914 L4.0864878,14.2410255 C4.12307317,14.4921202 4.19673171,14.6722223 4.23380488,14.7799024 C4.27087805,14.888059 4.30746341,15.0676846 4.41819512,15.2473103 C4.74892683,15.7866636 5.15380488,16.1821259 5.66941463,16.3979626 C6.29526829,16.6852683 6.99478049,16.7934248 7.62063415,16.6852683 C8.20941463,16.5780647 8.65087805,16.362228 9.0557561,15.9667657 C9.42404878,15.607038 9.64502439,15.1396302 9.71868293,14.5640658 C9.71868293,14.1686035 9.68209756,13.8450868 9.53478049,13.5215701 C9.38746341,13.1980533 9.1664878,12.8383256 8.72502439,12.5867544 C8.50404878,12.3351832 8.20941463,12.2270267 7.95185366,12.1188701 C7.54697561,11.9759319 7.2157561,11.8677754 6.81087805,11.7600953 C6.25819512,11.6519387 5.74307317,11.4723131 5.26453659,11.292211 C4.63868293,11.0763744 4.0864878,10.7171231 3.49770732,10.2859263 C2.68795122,9.63841634 2.17234146,8.95517187 1.76746341,8.1280363 C1.36258537,7.22943165 1.17868293,6.33035054 1.25234146,5.43126943 C1.36258537,4.1734135 1.95136585,2.95081566 2.87185366,1.979789 C3.75526829,1.11739535 4.8962439,0.469885423 6.33185366,0.289783324 C7.62063415,0.110157686 8.9455122,0.325994328 10.123561,0.865347703 C11.2650244,1.40470108 12.1850244,2.23183664 12.8845366,3.41822348 L9.57136585,5.17969824 Z" id="Fill-60" fill="#3DCD58" mask="url(#mask-4)"></path>
                </g>
                <path d="M6.1040663,8.77078424 C6.46687947,8.77078424 6.82926829,8.78438311 6.82926829,9.15932333 C6.82926829,9.56097561 6.58399811,9.56097561 6.34976083,9.56097561 L1.89246318,9.56097561 C1.72824248,9.56097561 1.36585366,9.56097561 1.36585366,9.13261127 C1.36585366,8.74407218 1.72824248,7.76689637 2.96859673,6.61536365 C4.7117973,4.99466998 5.07461047,4.68675275 5.48410135,4.12434242 C5.6597793,3.89656138 5.95215155,3.38806085 5.95215155,2.66489247 C5.95215155,1.37931376 5.07461047,0.669744253 4.15039166,0.669744253 C3.44810419,0.669744253 2.55910585,1.0981086 2.31341132,2.10248214 C2.17295382,2.67800566 2.13773336,2.85187691 1.89246318,2.85187691 C1.72824248,2.85187691 1.57632773,2.74502866 1.57632773,2.47742236 C1.57632773,1.74065511 2.22005588,0 4.17373052,0 C6.49021833,0 6.7006924,2.26324019 6.7006924,2.67800566 C6.7006924,4.03060736 5.79981246,5.0480941 4.7117973,5.99904352 C4.05661189,6.56145385 3.09717263,7.39195615 2.59432631,8.06121473 C2.3953095,8.31570783 2.27819086,8.58331413 2.19671703,8.77078424 L6.1040663,8.77078424 Z" id="Fill-63" fill="#3DCD58"></path>
                <path d="M10.932735,0.656864556 C9.05122752,0.656864556 8.9667981,3.11284255 8.9667981,4.84622189 C8.9667981,6.72440677 9.15971714,7.36793397 9.43706559,7.95906444 C9.8351525,8.81265493 10.4747163,8.90411105 10.9567952,8.90411105 C12.645821,8.90411105 12.8868604,6.76394249 12.8868604,4.80668617 C12.8868604,2.54791045 12.5613916,0.656864556 10.932735,0.656864556 M13.1401487,8.16912773 C12.4524645,9.54811459 11.2827015,9.56097561 10.9449838,9.56097561 C8.5205908,9.56097561 8.19512195,6.90827169 8.19512195,4.97769007 C8.19512195,2.36404553 8.59277139,1.56285178 9.01491849,0.972197649 C9.62998463,0.118607161 10.3539778,0 10.932735,0 C11.3548821,0 12.2114251,0.0523967376 12.8264912,0.932661929 C13.2726985,1.56285178 13.6585366,2.36404553 13.6585366,4.80668617 C13.6585366,5.14821764 13.6585366,7.13167232 13.1401487,8.16912773" id="Fill-65" fill="#3DCD58"></path>
                <path d="M19.1219512,8.90322628 C19.1219512,9.19227348 19.1219512,9.56097561 18.7981092,9.56097561 C18.4633028,9.56097561 18.4633028,9.2056288 18.4633028,8.90322628 L18.4633028,1.53920021 C17.5348512,2.55134241 16.8867756,2.94580122 16.6604386,2.94580122 C16.5092862,2.94580122 16.3902439,2.81415595 16.3902439,2.61716504 C16.3902439,2.42017412 16.43371,2.39394046 16.7681249,2.17023891 C17.9992728,1.35461066 18.3015775,0.736450304 18.6038823,0.184112576 C18.6359924,0.118766921 18.7009957,0 18.8411837,0 C19.1219512,0 19.1219512,0.407814126 19.1219512,0.736450304 L19.1219512,8.90322628 Z" id="Fill-67" fill="#3DCD58"></path>
                <path d="M24.2956393,2.42977962 C24.2956393,3.28337011 24.9222721,4.05788916 25.9512195,4.05788916 C26.9801669,4.05788916 27.6188091,3.28337011 27.6188091,2.42977962 C27.6188091,1.65478424 27.1101256,0.656864556 25.9512195,0.656864556 C24.780304,0.656864556 24.2956393,1.65478424 24.2956393,2.42977962 M23.9765327,6.77680351 C23.9765327,8.15579037 24.8515025,8.90411105 25.939639,8.90411105 C26.9801669,8.90411105 27.9263353,8.20818711 27.9263353,6.77680351 C27.9263353,5.52928482 27.1813242,4.71475372 25.939639,4.71475372 C24.7215438,4.71475372 23.9765327,5.52928482 23.9765327,6.77680351 M28.6829268,6.69773207 C28.6829268,8.33965529 27.5832098,9.56097561 25.9512195,9.56097561 C24.3076487,9.56097561 23.2195122,8.32631794 23.2195122,6.69773207 C23.2195122,4.95101537 24.3668378,4.50469043 24.7687235,4.34702388 C24.4255981,4.17649632 23.5742181,3.7430324 23.5742181,2.41644227 C23.5742181,1.1298642 24.4847872,0 25.9512195,0 C27.4056424,0 28.3402303,1.11652684 28.3402303,2.41644227 C28.3402303,3.7430324 27.4768409,4.17649632 27.1337155,4.34702388 C27.5952192,4.5308888 28.6829268,4.95101537 28.6829268,6.69773207" id="Fill-69" fill="#3DCD58"></path>
                <mask id="mask-6" fill="white">
                    <use xlink:href="#path-5"></use>
                </mask>
                <g id="Clip-72"></g>
                <polygon id="Fill-71" fill="#3DCD58" mask="url(#mask-6)" points="32.7804878 5.76326274 39.6097561 5.76326274 39.6097561 5.16356653 32.7804878 5.16356653"></polygon>
                <path d="M48.4451617,8.77078424 C48.8079467,8.77078424 49.1707317,8.78438311 49.1707317,9.15932333 C49.1707317,9.56097561 48.9250563,9.56097561 48.6908372,9.56097561 L44.2338857,9.56097561 C44.0696778,9.56097561 43.7073171,9.56097561 43.7073171,9.13261127 C43.7073171,8.74407218 44.0696778,7.76689637 45.3099357,6.61536365 C47.0530009,4.99466998 47.4157858,4.68675275 47.8252449,4.12434242 C48.0009092,3.89656138 48.2932588,3.38806085 48.2932588,2.66489247 C48.2932588,1.37931376 47.4157858,0.669744253 46.4916388,0.669744253 C45.7898302,0.669744253 44.9004766,1.0981086 44.6548011,2.10248214 C44.5143546,2.67800566 44.4795611,2.85187691 44.2338857,2.85187691 C44.0696778,2.85187691 43.9177748,2.74502866 43.9177748,2.47742236 C43.9177748,1.74065511 44.561453,0 46.5149759,0 C48.8312838,0 49.0417415,2.26324019 49.0417415,2.67800566 C49.0417415,4.03060736 48.1409315,5.0480941 47.0530009,5.99904352 C46.3978663,6.56145385 45.4389259,7.39195615 44.9356943,8.06121473 C44.736693,8.31570783 44.6195834,8.58331413 44.5381159,8.77078424 L48.4451617,8.77078424 Z" id="Fill-73" fill="#3DCD58" mask="url(#mask-6)"></path>
                <path d="M53.2744166,0.656864556 C51.3930598,0.656864556 51.3086372,3.11284255 51.3086372,4.84622189 C51.3086372,6.72440677 51.5015407,7.36793397 51.778867,7.95906444 C52.176922,8.81265493 52.8164346,8.90411105 53.2984749,8.90411105 C54.9873655,8.90411105 55.2283856,6.76394249 55.2283856,4.80668617 C55.2283856,2.54791045 54.9025054,0.656864556 53.2744166,0.656864556 M55.4816536,8.16912773 C54.7940245,9.54811459 53.6243551,9.56097561 53.2866645,9.56097561 C50.8624656,9.56097561 50.5365854,6.90827169 50.5365854,4.97769007 C50.5365854,2.36404553 50.9346404,1.56285178 51.3567537,0.972197649 C51.9717706,0.118607161 52.6957058,0 53.2744166,0 C53.6965299,0 54.5530044,0.0523967376 55.1680212,0.932661929 C55.6141928,1.56285178 56,2.36404553 56,4.80668617 C56,5.14821764 56,7.13167232 55.4816536,8.16912773" id="Fill-74" fill="#3DCD58" mask="url(#mask-6)"></path>
                <path d="M62.1036983,8.77078424 C62.4664833,8.77078424 62.8292683,8.78438311 62.8292683,9.15932333 C62.8292683,9.56097561 62.5835928,9.56097561 62.3493738,9.56097561 L57.8924223,9.56097561 C57.7282143,9.56097561 57.3658537,9.56097561 57.3658537,9.13261127 C57.3658537,8.74407218 57.7282143,7.76689637 58.9684723,6.61536365 C60.7115374,4.99466998 61.0743224,4.68675275 61.4837815,4.12434242 C61.6594458,3.89656138 61.9517954,3.38806085 61.9517954,2.66489247 C61.9517954,1.37931376 61.0743224,0.669744253 60.1501754,0.669744253 C59.4483668,0.669744253 58.5590132,1.0981086 58.3133377,2.10248214 C58.1728911,2.67800566 58.1380977,2.85187691 57.8924223,2.85187691 C57.7282143,2.85187691 57.5763114,2.74502866 57.5763114,2.47742236 C57.5763114,1.74065511 58.2199895,0 60.1735125,0 C62.4898204,0 62.7002781,2.26324019 62.7002781,2.67800566 C62.7002781,4.03060736 61.7994681,5.0480941 60.7115374,5.99904352 C60.0564029,6.56145385 59.0974625,7.39195615 58.5942309,8.06121473 C58.3952295,8.31570783 58.27812,8.58331413 58.1966525,8.77078424 L62.1036983,8.77078424 Z" id="Fill-75" fill="#3DCD58" mask="url(#mask-6)"></path>
                <path d="M68.2988069,0.656864556 C66.4174501,0.656864556 66.3330274,3.11284255 66.3330274,4.84622189 C66.3330274,6.72440677 66.525931,7.36793397 66.8032572,7.95906444 C67.2013123,8.81265493 67.8403874,8.90411105 68.3228651,8.90411105 C70.0113183,8.90411105 70.2523385,6.76394249 70.2523385,4.80668617 C70.2523385,2.54791045 69.9268957,0.656864556 68.2988069,0.656864556 M70.5056064,8.16912773 C69.8184147,9.54811459 68.6483079,9.56097561 68.3106173,9.56097561 C65.8868558,9.56097561 65.5609756,6.90827169 65.5609756,4.97769007 C65.5609756,2.36404553 65.9590306,1.56285178 66.3811439,0.972197649 C66.9961608,0.118607161 67.7200961,0 68.2988069,0 C68.7209202,0 69.5769572,0.0523967376 70.1924115,0.932661929 C70.6385831,1.56285178 71.0243902,2.36404553 71.0243902,4.80668617 C71.0243902,5.14821764 71.0243902,7.13167232 70.5056064,8.16912773" id="Fill-76" fill="#3DCD58" mask="url(#mask-6)"></path>
            </g>
        </g>
    </g>
</svg>