<svg height="39" viewBox="0 0 183 39" width="183" xmlns="http://www.w3.org/2000/svg" xmlns:xlink="http://www.w3.org/1999/xlink"><mask id="a" fill="#fff"><path d="m0 54.9720175h199.604006v-54.9720175h-199.604006z" fill="#fff" fill-rule="evenodd"/></mask><g fill="#fff" fill-rule="evenodd" transform="translate(-8 -8)"><path d="m15.7050088 32.1834591h-5.82903512v-10.2103802c0-.3753508 0-.9423976-.64134503-.9423976-.60564327 0-.60564327.5226608-.60564327.9423976v10.2528363c0 .8513743.11675439.9591228 1.03921053.9591228h6.03681289c.4065497 0 .9124854 0 .9124854-.509152 0-.4924269-.5059357-.4924269-.9124854-.4924269"/><path d="m18.3080848 24.3312924c-.5692983 0-.5692983.476345-.5692983.8590936v7.3519883c0 .3753508 0 .84269.5692983.84269.5509649 0 .5509649-.4673392.5509649-.84269v-7.3519883c0-.3422223 0-.8590936-.5509649-.8590936"/><path d="m18.3080848 21.364155c-.400117 0-.7137135.289152-.7137135.6587134 0 .3634503.3200293.6590351.7137135.6590351.3869298 0 .7137134-.3016959.7137134-.6590351 0-.3634503-.3200292-.6587134-.7137134-.6587134"/><path d="m22.7771082 22.5757953c-.0057895.0122222-.0112573.0247661-.0164035.03731.0051462-.0125439.010614-.0250878.0164035-.03731m1.0453216 1.9555556h-1.2022807v-.7577778c0-1.0823099.1013158-1.7918421 1.4550877-1.7918421.0517837 0 .20231.0154386.3618421.0315205.1717544.0173684.3492983.0350584.415234.0350584.2846491 0 .4609064-.2296491.4609064-.4422514 0-.0102924-.0032164-.2569883-.2582749-.3747076-.2055263-.0952047-.7995906-.2007018-1.3232163-.2007018-.3911111 0-.7944445.0907018-1.1353801.2550585-.3663451.1765789-.6513158.4300292-.8243568.7326901-.1167544.1974853-.2721052.5789473-.2721052 1.6049707v.9079825h-.9491521c-.1765789 0-.7137134 0-.7137134.3756725 0 .3923977.5001462.3923977.7137134.3923977h.9491521v7.2429532c0 .3753508 0 .84269.5692982.84269.5509649 0 .5509649-.4673392.5509649-.84269v-7.2429532h1.2022807c.4734503 0 .7133918-.1318714.7133918-.3923977 0-.3756725-.4641228-.3756725-.7133918-.3756725"/><path d="m25.7263304 28.132693c.1383041-1.1006433.9327485-2.9500585 3.0446199-2.9500585 2.6187719 0 2.8445614 2.2183333 2.9182164 2.9500585zm7.1380994.1254386c0-.0424562-.0057894-1.0427486-.5274854-2.0195614-.2968713-.5561111-.7030994-.9983626-1.2074269-1.3148538-.0556432-.0347369-.1186842-.0598246-.1765789-.0916667-.0402047-.0218713-.0816959-.0430994-.1238304-.0636842-.1235088-.0614328-.2511988-.117076-.3846784-.1653216-.0405263-.0144737-.0823392-.0279825-.1238304-.0414913-.1473099-.0476023-.2997661-.0881286-.4583333-.120614-.0321638-.0064328-.0656141-.0122222-.0987427-.0180117-.1830117-.0331287-.3727778-.0566082-.5699415-.0697953-.0183334-.0009649-.0366667-.0019298-.0553217-.0032164-.1103216-.0061111-.216462-.018655-.3312865-.018655-1.3293275 0-2.4251462.4297076-3.1694152 1.2428071-.7227193.7896198-1.1048246 1.9253216-1.1048246 3.2842397 0 1.3196784.3608772 2.4335088 1.0437135 3.2215205.3608772.4161988.8095614.7381579 1.3331871.9575146.5519298.230614 1.1900585.3480117 1.8973392.3480117 1.6368128 0 2.5927193-.6513158 3.1063743-1.1971345.5860233-.6230117.7703216-1.2817251.7703216-1.4126316 0-.2248245-.2261111-.4757017-.5509649-.4757017-.2290059 0-.4380702.1460234-.53231.3721345-.3248538.7558479-.8179239 1.2913742-1.466345 1.5917836-.3869298.1788304-.8211403.2695322-1.290731.2695322-.9977193 0-1.782193-.338041-2.3315497-1.005117-.5065789-.6146491-.7844737-1.4943275-.8044152-2.5444737h6.1178655c.5577193 0 1.0392105 0 1.0392105-.725614z"/><path d="m38.5976491 21.0305848c-.6233333 0-.6233333.5670468-.6233333.9423977v10.4696198c0 .3975439 0 .9427193.6416667.9427193.605 0 .605-.5229824.605-.9427193v-10.4696198c0-.4197369 0-.9423977-.6233334-.9423977"/><path d="m58.9755994 27.3771023c.4062281 0 .6300877-.3518713.6300877-.6355555v-7.2075731h-1.2849415v7.2075731c0 .2949415.2364035.6355555.6548538.6355555"/><path d="m47.1464825 28.8873187c-.0759065-.0427778-.1627486-.0752631-.2434796-.113538-.0276608-.0128655-.055-.0260526-.0829824-.0385965-.6123977-.2717836-1.335117-.4354971-2.0449708-.5873099-.6870175-.1469883-1.3360819-.2859357-1.8178947-.5184796-.5390644-.2602046-.7899415-.6008187-.7899415-1.0716959 0-.9497953 1.1302339-1.375 2.2501754-1.375 1.1611111 0 2.0514035.4576901 2.3235088 1.1945614.1627485.4499708.2901169.5226609.5326315.5226609.5091521 0 .5149416-.4380702.5149416-.4425731 0-.1122515-.0900585-.6323392-.5310234-1.1209065-.2659942-.2942982-.6127193-.527807-1.0302047-.6947368-.5159064-.205848-1.1430994-.3103801-1.8638889-.3103801-1.2547076 0-2.1797368.340614-2.7496784 1.0118713-.5226608.615614-.549035 1.2862281-.549035 1.4145614 0 .6336257.3258187 1.2283333.871959 1.5911404.5557895.3679532 1.1311988.5078655 2.2778363.7867251.3110234.0759064.6632163.161462 1.0684795.2650292l.047924.0119006c.6249415.1563158 1.7886257.4473977 1.7886257 1.4962573 0 .8085965-.7851169 1.6245907-2.5393275 1.6245907-1.2733625 0-2.1401754-.4859942-2.5763158-1.4447953l-.0115789-.0263743c-.1212573-.2721053-.2357602-.5290936-.557076-.5290936-.1312281 0-.2663158.0469591-.3714913.1289766-.1154678.0907018-.1794736.2138889-.1794736.3467252 0 .4927485.4120175 1.1826608.9793859 1.6406725.2795029.227076.5770176.3875731.9356433.5059357.4699123.1543859 1.0285965.2296491 1.708538.2296491 1.4441521 0 2.500731-.3509064 3.1404678-1.0430702.5667252-.6133626.6278363-1.3116374.6278363-1.583421 0-.8323977-.3695614-1.4441521-1.1295906-1.8712866"/><path d="m73.4604444 25.2508216c-.4068713-.4194152-1.1714035-.9195614-2.5004093-.9195614-1.7497076 0-2.4801462.8333626-3.0095614 1.452193v-.6445614c.0006433-.2483041.0009649-.5303801-.1598538-.6911988-.0170468-.0170468-.0424562-.0241228-.0623977-.0379532-.0064327-.004503-.0138304-.0086842-.0209064-.0128655-.0816959-.0495322-.1781871-.0823392-.307807-.0823392-.5692983 0-.5692983.4966082-.5692983.8594152v7.3519883c0 .4026901 0 .8594152.5692983.8594152.1296199 0 .2261111-.0331287.307807-.0823392.007076-.0045029.0144737-.0086842.0212281-.0128655.0196198-.0138304.0450292-.021228.062076-.0382748.1608187-.1608187.1604971-.4425731.1598538-.6915205v-3.1353216c0-1.4000878.046959-2.1170176.3245321-2.6634796.2338305-.4554386.6123977-.84269 1.0945322-1.1192982.4592983-.2640643.9922515-.4097661 1.500117-.4097661.7532748 0 1.4261403.304269 1.8005263.8137427.3316082.4419298.3772807 1.1077193.3772807 1.7619298v4.752193c-.0003216.2489474-.0006433.5307018.1601754.6915205.0170468.0170468.0424562.0244444.0620761.0382748.0067543.0041813.014152.0083626.021228.0128655.0816959.0492105.1781872.0823392.307807.0823392.5696199 0 .5696199-.4769883.5696199-.8594152v-4.9847368c0-.4644445 0-1.5522223-.707924-2.2903802"/><path d="m60.7593684 20.8727573v1.235731c2.0626608.7140351 3.5502339 2.6708772 3.5502339 4.9731579 0 2.9037427-2.3624269 5.2661696-5.2658479 5.2661696-2.9034211 0-5.265848-2.3624269-5.265848-5.2661696 0-2.2575731 1.4312866-4.1825731 3.4318714-4.9294152v-1.2489181c-2.6641228.7925146-4.6138889 3.2604386-4.6138889 6.1783333 0 3.5553801 2.8924854 6.4481871 6.4478655 6.4481871s6.4478655-2.892807 6.4478655-6.4481871c0-2.9606725-2.0083041-5.4549708-4.7322515-6.2088889"/><path d="m107.668965 22.2260468c-2.14886-.9539766-3.430907-1.3241813-4.702983-1.3241813-1.335438 0-2.190994.4782749-2.190994 1.2173977 0 2.2308772 7.567164 1.6023976 7.567164 6.7624269 0 2.8445614-2.387193 4.4971345-5.703596 4.4971345-2.601726 0-3.8818425-.6728655-5.3575151-1.4351462v-3.1909649c2.1279533 1.4100584 3.4299411 1.9082748 5.0715791 1.9082748 1.423567 0 2.191316-.4982164 2.191316-1.3659941 0-2.4290059-7.5668424-1.5396784-7.5668424-6.8518422 0-2.5621637 2.2144737-4.2578362 5.6614624-4.2578362 1.663508 0 3.16459.348655 5.030409 1.151462z"/><path d="m118.262898 32.7007807c-1.260819.4576901-2.327369.6760819-3.391989.6760819-3.523859 0-5.802339-2.0526901-5.802339-5.1754679 0-3.0652046 2.366608-5.2311111 5.671755-5.2311111 1.020877 0 2.32576.2618129 3.369473.6503509v2.346345c-.825965-.4387134-1.783158-.6792982-2.565702-.6792982-1.891228 0-3.108304 1.1369883-3.108304 2.8899123 0 1.7796199 1.196813 2.9507017 2.998626 2.9507017.760673 0 1.436755-.1749707 2.82848-.6957017z"/><path d="m145.737778 27.0515409c.129298-1.3933333.937895-2.1983918 2.17652-2.1983918 1.219006 0 2.044006.8278948 2.174269 2.1983918zm1.959737-4.0783625c-3.092223 0-5.293831 2.1842397-5.293831 5.2574853 0 3.0957603 2.289737 5.1461989 5.817456 5.1461989.780936 0 2.671521 0 4.472369-1.3335088v-1.9587719c-1.475673 1.0504678-2.451199 1.4126316-3.71041 1.4126316-1.987397 0-3.202543-1.0289182-3.312222-2.783772h7.199211c.150204-3.6640935-2.255644-5.7402631-5.172573-5.7402631z"/><path d="m154.08845 33.1939474h3.148509v-10.035731h-3.148509z" mask="url(#a)"/><path d="m165.99714 30.4505731c-.655175.589883-1.200029.8269298-1.873216.8269298-1.482105 0-2.42-1.2196491-2.42-3.0481579 0-2.0034795.937895-3.1584795 2.524532-3.1584795.568655 0 1.309708.2611696 1.768684.5892398zm0-12.0803801v5.2288596c-.850087-.4120175-1.69728-.6281579-2.61459-.6281579-2.870936 0-4.858012 2.1215205-4.858012 5.1931579 0 3.0044152 1.987076 5.2150293 4.680789 5.2150293 1.068158 0 1.894123-.2801462 2.791813-.9964328v.8082749h3.147866v-14.820731z" mask="url(#a)"/><path d="m173.804696 27.0515409c.130906-1.3933333.935-2.1983918 2.172982-2.1983918 1.219649 0 2.053012.8278948 2.183597 2.1983918zm1.957485-4.0783625c-3.091257 0-5.289327 2.1842397-5.289327 5.2574853 0 3.0957603 2.289737 5.1461989 5.813918 5.1461989.780614 0 2.67345 0 4.478801-1.3335088v-1.9587719c-1.476316 1.0504678-2.454093 1.4126316-3.719093 1.4126316-1.977106 0-3.197398-1.0289182-3.307076-2.783772h7.196959c.149239-3.6640935-2.258538-5.7402631-5.174182-5.7402631z" mask="url(#a)"/><path d="m185.649058 26.0319825h.046316c.934357-2.0890351 1.980322-3.0680995 3.194503-3.0680995.629123 0 1.172047.2399416 2.084854.9157018l-.865848 2.7821637c-.827573-.5216959-1.370497-.7394444-1.869678-.7394444-1.155 0-1.894123 1.0887427-2.590147 2.9285088v4.3295614h-3.15269v-10.032193h3.15269z" mask="url(#a)"/><path d="m157.383947 18.9369503c.295907.7799708-.236082 1.8671053-1.184912 2.4261111-.951725.5593275-1.957807.3821053-2.251784-.3975439-.297836-.7812573.231258-1.8696783 1.182661-2.4261111.949152-.5622222 1.955877-.3837134 2.254035.3975439" mask="url(#a)"/><path d="m129.601871 26.8067105c0-2.7194444-1.847807-3.8332748-3.672134-3.8332748-1.239912 0-2.259503.5233041-3.171667 1.6783041h-.043743v-6.2819006h-3.150438v14.795h3.150438v-6.3581287c.737193-1.0665497 1.367603-1.5226316 2.105439-1.5226316.979708 0 1.631345.6966667 1.631345 2.1958188v3.5254678c1.056579-.542924 2.13117-.876462 3.15076-1.0002924z" mask="url(#a)"/><path d="m137.506175 22.9704766c-1.283655 0-2.263362.4766667-3.266549 1.6236257v-1.4357894h-3.149796v6.82c1.091316.1087134 2.483685.6088596 3.149796 1.4354678v-4.685614c.828216-1.2431287 1.415848-1.6573977 2.199356-1.6573977.891901 0 1.569913.5892398 1.569913 2.0038012v6.093421h3.15076v-6.3529824c0-2.955848-2.087749-3.8445322-3.65348-3.8445322" mask="url(#a)"/><path d="m142.899874 36.0493801h-3.660877v2.6014035h3.532222v1.1164035h-3.532222v2.6827778h3.770556v1.115117h-4.997603v-8.6292106h4.887924z" mask="url(#a)"/><path d="m145.889912 43.5699708h1.121228v-8.6372515h-1.121228z" mask="url(#a)"/><path d="m152.562506 38.7324152c.795731 0 1.287836.5480702 1.324824 1.4081287h-2.855818c.154386-.898655.672222-1.4081287 1.530994-1.4081287m-1.551579 2.156579h3.995058c0-2.105117-.962017-3.1211696-2.468889-3.1211696-1.563157 0-2.648362 1.1556432-2.648362 2.8786549 0 1.5753801.980351 3.0304679 2.745819 3.0304679.962017 0 1.584386-.2142106 2.273333-.6719006v-1.0913158c-.666111.4361403-1.311316.6873392-1.990936.6873392-1.085526 0-1.731052-.582807-1.906023-1.712076" mask="url(#a)"/><path d="m162.32848 39.3700614c-.645205-.4416082-1.075878-.5712281-1.566696-.5712281-1.026667 0-1.737164.7876901-1.737164 1.9410819 0 1.173655.755848 1.881579 1.925 1.881579.480205 0 .938538-.1241521 1.504298-.3776024v1.1057895c-.377924.1785088-1.097748.326462-1.692134.326462-1.697603 0-2.876404-1.1675439-2.876404-2.8368421 0-1.8825439 1.076199-3.0713158 2.799854-3.0713158.65807 0 1.100643.1527778 1.643246.3911111z" mask="url(#a)"/><path d="m167.437304 37.8761842h1.799561v1.0102632h-1.799561v2.9207894c0 .6686843.483743.8613451.810848.8613451.405585 0 .824035-.1421638 1.27883-.42231v1.0520761c-.394327.2164619-.99804.3779239-1.36921.3779239-1.220936 0-1.837836-.7577777-1.837836-1.7844444v-3.0053801h-.989679v-.125117l2.107047-2.0613743z" mask="url(#a)"/><path d="m173.525161 37.8761842v1.3171053h.022514c.572515-1.0083334 1.115761-1.4261404 1.645176-1.4261404.456082 0 .884503.2142105 1.354093.6590351l-.594064.9880702c-.3419-.3373977-.783509-.5705848-1.050468-.5705848-.770965 0-1.377251.7847953-1.377251 1.7574269v2.9690351h-1.119942v-5.6939474z" mask="url(#a)"/><path d="m188.036863 39.3700614c-.6481-.4416082-1.077807-.5712281-1.572486-.5712281-1.02345 0-1.728801.7876901-1.728801 1.9410819 0 1.173655.757778 1.881579 1.918889 1.881579.481813 0 .936286-.1241521 1.509766-.3776024v1.1057895c-.385643.1785088-1.107076.326462-1.699854.326462-1.694707 0-2.878655-1.1675439-2.878655-2.8368421 0-1.8825439 1.081345-3.0713158 2.805-3.0713158.659357 0 1.097105.1527778 1.646141.3911111z" mask="url(#a)"/><path d="m179.518713 43.5699708h1.121229v-5.694269h-1.121229z" mask="url(#a)"/><path d="m180.67783 35.8304737c.109679.2753216-.081695.6632164-.41845.8616667-.339971.1984502-.699561.1344444-.801842-.1408772-.102281-.2775731.083304-.6628948.423918-.8616667.336755-.2007018.694094-.1363743.796374.1408772" mask="url(#a)"/><path d="m130.487307 36.2909298c-.197807 0-.281111.0321638-.362164.1225439-.03152.0353801-.044064.0710819-.055643.1421637l-1.005117 3.813655c-.236082 1.3370468-1.879327 2.6731287-4.020789 2.6731287h-1.166901-1.810175l.516871-1.9603802h1.912456c.195234 0 .34769-.0717251.476023-.2142105.045995-.055.108071-.1421637.11579-.2309357l.794123-3.3321637c.23383-1.3383333 1.647748-2.8162573 3.788889-2.8162573h3.047836l-.389825 1.8024561zm.687339 2.3238304.339971-1.2338011h3.097368c.382106-1.7886258.081053-3.4463451-1.004795-4.532193-2.197105-2.196462-6.794269-1.4502632-10.219064 1.8265789-.534562.5085088-.986462 1.0585088-1.39848 1.620731h1.865176l-.433568 1.2363743h-2.22766c-.212924.3898246-.412661.7761111-.565439 1.169152h2.64193l-.422953 1.2366959h-2.596258c-.443859 1.8883334-.160818 3.6505848.955585 4.7689182 2.171053 2.1694444 6.753743 1.4068421 10.176608-1.8690351.598889-.5699415 1.093889-1.1845907 1.540322-1.8162866h-2.395556l.365059-1.2338011h2.80114c.204883-.393041.394006-.7806141.541316-1.1733334z" mask="url(#a)"/><path d="m85.2766959 46.342807h.6474561v-37.71327484h-.6474561z" mask="url(#a)"/></g></svg>