<svg height="10" viewBox="0 0 14 10" width="14" xmlns="http://www.w3.org/2000/svg"><path d="m19 8.18382201c-.5152344.20085148-1.06875.33646914-1.6498047.39741125.5931641-.31243562 1.0484375-.80718258 1.2630859-1.39651857-.5550781.28908878-1.1697265.49938199-1.8240234.61251116-.5238281-.49062693-1.2705078-.79722585-2.0964844-.79722585-1.5863281 0-2.8724609 1.13026162-2.8724609 2.52454851 0 .19793312.0255859.39054453.0744141.57525919-2.38710941-.10523241-4.50351566-1.11034811-5.92011722-2.63767764-.24726563.37286273-.38886719.80649591-.38886719 1.26914097 0 .87584976.50703125 1.64852707 1.27773437 2.10138707-.47089843-.0130468-.91367187-.1268626-1.30097656-.315869-.00019531.0104718-.00019531.0211152-.00019531.0317586 0 1.223134.99003906 2.2435281 2.30410156 2.4754515-.24121094.0576804-.49492187.0885806-.75683594.0885806-.18515625 0-.36503906-.0159651-.54042968-.0453203.365625 1.002884 1.42636718 1.732816 2.68320312 1.7532445-.98300781.6770583-2.22148437 1.0806496-3.5671875 1.0806496-.23183594 0-.46054687-.0118451-.68515625-.0351919 1.27109375.7163702 2.78085938 1.1340383 4.40292969 1.1340383 5.28320311 0 8.17207031-3.8467349 8.17207031-7.18275767 0-.10952414-.0027344-.2183616-.0082031-.32668407.5611328-.35586761 1.0480469-.80048753 1.4332031-1.30673625" fill="#2f2e2f" fill-rule="evenodd" transform="translate(-5 -7)"/></svg>